<?xml version="1.0" encoding="UTF-8"?><svg id="Layer_1" xmlns="http://www.w3.org/2000/svg" width="201" height="139" viewBox="0 0 201 139"><defs><style>.cls-1,.cls-2{fill:#323232;}.cls-2{stroke:#323232;stroke-miterlimit:10;stroke-width:5px;}</style></defs><path class="cls-1" d="M16.36,48.67v-24.5h15.82v3.39h-11.62v7.04h10.57v3.33h-10.57v7.35h11.62v3.39h-15.82Z"/><path class="cls-1" d="M36.59,48.67v-24.5h7.91c2.85,0,5.2.5,7.05,1.5,1.86,1,3.23,2.42,4.13,4.25.9,1.83,1.35,4.01,1.35,6.53s-.45,4.63-1.35,6.46c-.9,1.83-2.27,3.25-4.13,4.25-1.85,1-4.21,1.5-7.05,1.5h-7.91ZM40.79,45.1h3.5c2.12,0,3.8-.34,5.02-1.03,1.23-.69,2.1-1.68,2.62-2.97s.79-2.84.79-4.64-.26-3.38-.79-4.67-1.4-2.3-2.62-3.01-2.9-1.07-5.02-1.07h-3.5v17.39Z"/><path class="cls-1" d="M65.75,48.67v-8.82l-8.15-15.68h4.76l5.99,12.46h-.91l5.98-12.46h4.73l-8.19,15.68v8.82h-4.2Z"/><path class="cls-1" d="M86.85,48.67v-21.11h-7.21v-3.39h18.58v3.39h-7.21v21.11h-4.17Z"/><path class="cls-1" d="M97.46,48.67l8.96-24.5h4.69l8.96,24.5h-4.44l-6.9-19.6-6.9,19.6h-4.38ZM101.45,42.89l1.12-3.32h12.08l1.12,3.32h-14.31Z"/><path class="cls-1" d="M24.59,91.09c-1.77,0-3.35-.31-4.73-.95-1.38-.63-2.45-1.53-3.22-2.69s-1.17-2.56-1.19-4.17h4.44c0,.82.19,1.55.58,2.19.38.64.92,1.15,1.61,1.52.69.37,1.52.56,2.5.56.84,0,1.57-.13,2.19-.4.62-.27,1.1-.65,1.44-1.16.34-.5.51-1.09.51-1.77,0-.77-.18-1.41-.54-1.91-.36-.5-.86-.93-1.49-1.28s-1.35-.66-2.17-.93c-.82-.27-1.68-.55-2.59-.86-1.94-.65-3.4-1.49-4.38-2.5-.98-1.02-1.47-2.37-1.47-4.08,0-1.42.34-2.65,1.02-3.67.68-1.03,1.63-1.83,2.85-2.4,1.23-.57,2.64-.86,4.25-.86s3.06.29,4.29.88c1.23.58,2.19,1.39,2.91,2.43.71,1.04,1.08,2.28,1.1,3.73h-4.48c-.02-.61-.19-1.17-.49-1.7-.3-.53-.74-.96-1.31-1.3-.57-.34-1.27-.51-2.08-.51-.7-.02-1.32.09-1.87.33s-.98.6-1.29,1.05c-.31.46-.47,1.02-.47,1.7s.15,1.2.44,1.63c.29.43.72.79,1.28,1.08.56.29,1.21.57,1.96.82.75.26,1.56.54,2.45.84,1.21.4,2.32.88,3.31,1.45.99.57,1.78,1.31,2.36,2.22.58.91.88,2.09.88,3.54,0,1.26-.33,2.43-.98,3.52-.65,1.08-1.61,1.96-2.87,2.62-1.26.67-2.83,1-4.73,1Z"/><path class="cls-1" d="M35.75,90.67l21.17-24.5h4.06l-21.14,24.5h-4.1ZM48.42,91.09c-2.38,0-4.47-.53-6.28-1.59-1.81-1.06-3.22-2.54-4.24-4.44-1.01-1.9-1.52-4.11-1.52-6.63s.51-4.7,1.52-6.6c1.02-1.9,2.43-3.39,4.24-4.46,1.81-1.07,3.9-1.61,6.28-1.61s4.51.54,6.32,1.61,3.22,2.56,4.24,4.46c1.01,1.9,1.52,4.1,1.52,6.6s-.51,4.73-1.52,6.63c-1.02,1.9-2.43,3.38-4.24,4.44-1.81,1.06-3.91,1.59-6.32,1.59ZM48.42,87.31c1.59,0,2.96-.36,4.11-1.07,1.15-.71,2.05-1.73,2.69-3.06.64-1.33.96-2.92.96-4.76s-.32-3.43-.96-4.76c-.64-1.33-1.54-2.35-2.69-3.06-1.16-.71-2.53-1.07-4.11-1.07s-2.92.36-4.08,1.07c-1.15.71-2.06,1.73-2.71,3.06s-.98,2.92-.98,4.76.33,3.43.98,4.76,1.56,2.35,2.71,3.06c1.16.71,2.51,1.07,4.08,1.07Z"/><path class="cls-1" d="M64.45,90.67v-24.5h8.79c1.94,0,3.54.33,4.81,1,1.27.67,2.22,1.55,2.83,2.66.62,1.11.93,2.36.93,3.76,0,1.31-.3,2.52-.91,3.64-.61,1.12-1.55,2.02-2.83,2.7-1.28.68-2.93,1.01-4.94,1.01h-4.48v9.73h-4.2ZM68.65,77.83h4.31c1.56,0,2.71-.38,3.45-1.14.73-.76,1.1-1.76,1.1-2.99s-.36-2.19-1.08-2.92c-.72-.74-1.88-1.1-3.46-1.1h-4.31v8.16ZM77.23,90.67l-5.14-10.82h4.55l5.39,10.82h-4.8Z"/><path class="cls-1" d="M86.15,90.67v-24.5h15.82v3.39h-11.62v7.04h10.57v3.33h-10.57v7.35h11.62v3.39h-15.82Z"/><path class="cls-1" d="M106.38,90.67v-24.5h4.2l11.79,17.71v-17.71h4.2v24.5h-4.2l-11.79-17.67v17.67h-4.2Z"/><path class="cls-1" d="M139.74,91.09c-1.77,0-3.35-.31-4.73-.95-1.38-.63-2.45-1.53-3.22-2.69s-1.17-2.56-1.19-4.17h4.44c0,.82.19,1.55.58,2.19.38.64.92,1.15,1.61,1.52.69.37,1.52.56,2.5.56.84,0,1.57-.13,2.19-.4.62-.27,1.1-.65,1.44-1.16.34-.5.51-1.09.51-1.77,0-.77-.18-1.41-.54-1.91-.36-.5-.86-.93-1.49-1.28s-1.35-.66-2.17-.93c-.82-.27-1.68-.55-2.59-.86-1.94-.65-3.4-1.49-4.38-2.5-.98-1.02-1.47-2.37-1.47-4.08,0-1.42.34-2.65,1.02-3.67.68-1.03,1.63-1.83,2.85-2.4,1.23-.57,2.64-.86,4.25-.86s3.06.29,4.29.88c1.23.58,2.19,1.39,2.91,2.43.71,1.04,1.08,2.28,1.1,3.73h-4.48c-.02-.61-.19-1.17-.49-1.7-.3-.53-.74-.96-1.31-1.3-.57-.34-1.27-.51-2.08-.51-.7-.02-1.32.09-1.87.33s-.98.6-1.29,1.05c-.31.46-.47,1.02-.47,1.7s.15,1.2.44,1.63c.29.43.72.79,1.28,1.08.56.29,1.21.57,1.96.82.75.26,1.56.54,2.45.84,1.21.4,2.32.88,3.31,1.45.99.57,1.78,1.31,2.36,2.22.58.91.88,2.09.88,3.54,0,1.26-.33,2.43-.98,3.52-.65,1.08-1.61,1.96-2.87,2.62-1.26.67-2.83,1-4.73,1Z"/><path class="cls-1" d="M152.41,90.67v-24.5h15.82v3.39h-11.62v7.04h10.57v3.33h-10.57v7.35h11.62v3.39h-15.82Z"/><path class="cls-1" d="M172.63,90.67v-24.5h4.2l11.79,17.71v-17.71h4.2v24.5h-4.2l-11.79-17.67v17.67h-4.2Z"/><line class="cls-2" x1="124.87" y1="17.72" x2="150.55" y2="17.39"/><line class="cls-2" x1="148.55" y1="14.89" x2="148.87" y2="39.72"/><line class="cls-2" x1="83.55" y1="124.89" x2="57.87" y2="125.22"/><line class="cls-2" x1="59.87" y1="127.72" x2="59.55" y2="102.89"/><line class="cls-2" x1="150.25" y1="100.78" x2="150.92" y2="126.45"/><line class="cls-2" x1="153.39" y1="124.41" x2="128.57" y2="125.07"/></svg>