<?xml version="1.0" encoding="UTF-8"?><svg id="Layer_1" xmlns="http://www.w3.org/2000/svg" width="390" height="389" viewBox="0 0 390 389"><defs><style>.cls-1{fill:#323232;}.cls-2{fill:#fff;}</style></defs><polyline class="cls-2" points="390 0 389 0 389 388 1 388 1 389 389 389 390 389 390 388 390 0"/><polyline class="cls-1" points="0 140 10 140 10 3 0 3 0 140"/><path d="M10.73,230.16v-49h29.75v4.06H15.63v18.27h22.75v4.06H15.63v18.55h24.85v4.06H10.73Z"/><path d="M50.07,230.16v-49h13.86c5.79,0,10.54.98,14.25,2.94s6.46,4.78,8.26,8.47c1.8,3.69,2.69,8.1,2.69,13.23s-.9,9.38-2.69,13.02c-1.8,3.64-4.55,6.44-8.26,8.4-3.71,1.96-8.46,2.94-14.25,2.94h-13.86ZM54.97,226.1h8.96c4.95,0,8.89-.82,11.83-2.45,2.94-1.63,5.06-3.97,6.37-7,1.31-3.03,1.96-6.65,1.96-10.85s-.65-7.91-1.96-10.99c-1.31-3.08-3.43-5.45-6.37-7.1-2.94-1.66-6.88-2.48-11.83-2.48h-8.96v40.88Z"/><path d="M106.49,230.16v-19.11l-15.82-29.89h5.53l13.58,27.02h-1.68l13.51-27.02h5.46l-15.68,29.89v19.11h-4.9Z"/><path d="M145.55,230.16v-44.94h-14.7v-4.06h34.3v4.06h-14.7v44.94h-4.9Z"/><path d="M164.03,230.16l18.06-49h5.04l18.06,49h-5.18l-15.4-42.56-15.4,42.56h-5.18ZM172.29,216.93l1.47-4.06h21.63l1.47,4.06h-24.57Z"/><path d="M25.99,315c-3.59,0-6.71-.65-9.35-1.96-2.64-1.31-4.65-3.14-6.06-5.5-1.4-2.36-2.1-5.05-2.1-8.08h5.11c0,2.05.47,3.94,1.4,5.67.93,1.73,2.31,3.12,4.13,4.17,1.82,1.05,4.11,1.58,6.86,1.58,2.43,0,4.47-.41,6.12-1.22,1.66-.82,2.93-1.9,3.81-3.25.89-1.35,1.33-2.89,1.33-4.62,0-2.05-.43-3.71-1.3-4.97-.86-1.26-2.04-2.29-3.53-3.08-1.49-.79-3.19-1.48-5.08-2.06-1.89-.58-3.88-1.23-5.98-1.92-3.78-1.31-6.56-2.92-8.33-4.83-1.77-1.91-2.68-4.36-2.73-7.35,0-2.57.59-4.84,1.79-6.82,1.19-1.98,2.93-3.55,5.21-4.69,2.29-1.14,4.99-1.71,8.12-1.71s5.68.57,7.94,1.71c2.26,1.14,4.02,2.73,5.29,4.76,1.26,2.03,1.89,4.35,1.89,6.96h-5.04c0-1.49-.39-2.95-1.16-4.38-.77-1.42-1.91-2.59-3.43-3.5-1.52-.91-3.44-1.36-5.77-1.36-1.91,0-3.6.34-5.07,1.01-1.47.68-2.62,1.66-3.47,2.94-.84,1.28-1.26,2.79-1.26,4.51s.37,3.06,1.12,4.13c.75,1.07,1.8,1.96,3.15,2.66,1.35.7,2.94,1.34,4.76,1.92,1.82.58,3.85,1.25,6.09,2,2.29.79,4.32,1.75,6.09,2.87,1.77,1.12,3.17,2.55,4.2,4.3,1.03,1.75,1.54,3.96,1.54,6.62,0,2.29-.59,4.46-1.78,6.51-1.19,2.05-3,3.73-5.43,5.04-2.43,1.31-5.46,1.96-9.1,1.96Z"/><path d="M48.18,314.16l43.68-49h5.53l-43.61,49h-5.6ZM72.61,315c-4.67,0-8.77-1.06-12.32-3.18-3.55-2.12-6.31-5.09-8.3-8.89-1.98-3.8-2.97-8.22-2.97-13.26s.99-9.39,2.97-13.2c1.98-3.8,4.75-6.78,8.3-8.92,3.55-2.15,7.65-3.22,12.32-3.22s8.98,1.07,12.53,3.22c3.55,2.15,6.3,5.12,8.26,8.92,1.96,3.8,2.94,8.2,2.94,13.2s-.98,9.46-2.94,13.26c-1.96,3.8-4.71,6.77-8.26,8.89-3.55,2.12-7.72,3.18-12.53,3.18ZM72.68,310.73c3.69,0,6.93-.84,9.73-2.52,2.8-1.68,4.98-4.09,6.55-7.25,1.56-3.15,2.34-6.92,2.34-11.3s-.78-8.14-2.34-11.27c-1.56-3.13-3.75-5.53-6.55-7.21-2.8-1.68-6.04-2.52-9.73-2.52s-6.93.84-9.73,2.52c-2.8,1.68-4.98,4.08-6.54,7.21-1.56,3.13-2.34,6.88-2.34,11.27s.78,8.16,2.34,11.3c1.56,3.15,3.75,5.57,6.54,7.25,2.8,1.68,6.04,2.52,9.73,2.52Z"/><path d="M105.44,314.16v-49h15.12c3.78,0,6.87.63,9.27,1.89,2.4,1.26,4.17,2.95,5.29,5.08,1.12,2.12,1.68,4.54,1.68,7.25s-.58,5-1.75,7.17c-1.17,2.17-2.96,3.9-5.39,5.18-2.43,1.28-5.58,1.92-9.45,1.92h-9.87v20.51h-4.9ZM110.34,289.66h9.87c3.97,0,6.88-.96,8.75-2.87,1.87-1.91,2.8-4.39,2.8-7.42s-.91-5.59-2.73-7.38c-1.82-1.8-4.78-2.7-8.89-2.7h-9.8v20.37ZM131.48,314.16l-10.99-22.05h5.6l11.27,22.05h-5.88Z"/><path d="M146.53,314.16v-49h29.75v4.06h-24.85v18.27h22.75v4.06h-22.75v18.55h24.85v4.06h-29.75Z"/><path d="M185.87,314.16v-49h4.9l27.09,40.81v-40.81h4.9v49h-4.9l-27.09-40.88v40.88h-4.9Z"/><path d="M248.94,315c-3.59,0-6.71-.65-9.35-1.96s-4.65-3.14-6.05-5.5c-1.4-2.36-2.1-5.05-2.1-8.08h5.11c0,2.05.47,3.94,1.4,5.67.93,1.73,2.31,3.12,4.13,4.17,1.82,1.05,4.11,1.58,6.86,1.58,2.43,0,4.47-.41,6.12-1.22,1.66-.82,2.93-1.9,3.81-3.25s1.33-2.89,1.33-4.62c0-2.05-.43-3.71-1.29-4.97-.86-1.26-2.04-2.29-3.54-3.08-1.49-.79-3.18-1.48-5.07-2.06-1.89-.58-3.88-1.23-5.99-1.92-3.78-1.31-6.56-2.92-8.33-4.83-1.77-1.91-2.68-4.36-2.73-7.35,0-2.57.59-4.84,1.79-6.82,1.19-1.98,2.93-3.55,5.21-4.69,2.29-1.14,4.99-1.71,8.12-1.71s5.68.57,7.95,1.71c2.26,1.14,4.03,2.73,5.29,4.76,1.26,2.03,1.89,4.35,1.89,6.96h-5.04c0-1.49-.38-2.95-1.15-4.38-.77-1.42-1.91-2.59-3.43-3.5-1.52-.91-3.44-1.36-5.77-1.36-1.91,0-3.61.34-5.08,1.01-1.47.68-2.62,1.66-3.47,2.94-.84,1.28-1.26,2.79-1.26,4.51s.37,3.06,1.12,4.13c.75,1.07,1.79,1.96,3.15,2.66,1.35.7,2.94,1.34,4.76,1.92,1.82.58,3.85,1.25,6.09,2,2.29.79,4.32,1.75,6.09,2.87,1.77,1.12,3.17,2.55,4.2,4.3,1.03,1.75,1.54,3.96,1.54,6.62,0,2.29-.59,4.46-1.78,6.51-1.19,2.05-3,3.73-5.43,5.04-2.43,1.31-5.46,1.96-9.1,1.96Z"/><path d="M273.99,314.16v-49h29.75v4.06h-24.85v18.27h22.75v4.06h-22.75v18.55h24.85v4.06h-29.75Z"/><path d="M313.33,314.16v-49h4.9l27.09,40.81v-40.81h4.9v49h-4.9l-27.09-40.88v40.88h-4.9Z"/><polyline class="cls-1" points="389 252 379 252 379 389 389 389 389 252"/><polyline class="cls-1" points="243 379 243 389 380 389 380 379 243 379"/><polyline class="cls-1" points="5 3 5 13 142 13 142 3 5 3"/></svg>