<?xml version="1.0" encoding="UTF-8"?><svg id="Layer_1" xmlns="http://www.w3.org/2000/svg" width="390" height="389" viewBox="0 0 390 389"><defs><style>.cls-1{fill:#323232;}.cls-2{fill:#fff;}</style></defs><polyline class="cls-2" points="390 0 389 0 389 388 1 388 1 389 389 389 390 389 390 388 390 0"/><polyline class="cls-1" points="0 188 10 188 10 3 0 3 0 188"/><path d="M13.82,291.16v-35h22.6v4.85h-16.6v10.05h15.1v4.75h-15.1v10.5h16.6v4.85H13.82Z"/><path d="M42.72,291.16v-35h11.3c4.07,0,7.42.72,10.07,2.15,2.65,1.43,4.62,3.46,5.9,6.07,1.28,2.62,1.92,5.73,1.92,9.33s-.64,6.61-1.92,9.23c-1.28,2.62-3.25,4.64-5.9,6.07-2.65,1.43-6.01,2.15-10.07,2.15h-11.3ZM48.72,286.06h5c3.03,0,5.43-.49,7.18-1.48,1.75-.98,3-2.4,3.75-4.25.75-1.85,1.12-4.06,1.12-6.62s-.38-4.83-1.12-6.67-2-3.28-3.75-4.3-4.14-1.53-7.18-1.53h-5v24.85Z"/><path d="M84.37,291.16v-12.6l-11.65-22.4h6.8l8.55,17.8h-1.3l8.55-17.8h6.75l-11.7,22.4v12.6h-6Z"/><path d="M114.52,291.16v-30.15h-10.3v-4.85h26.55v4.85h-10.3v30.15h-5.95Z"/><path d="M129.67,291.16l12.8-35h6.7l12.8,35h-6.35l-9.85-28-9.85,28h-6.25ZM135.37,282.91l1.6-4.75h17.25l1.6,4.75h-20.45Z"/><path d="M25.57,351.76c-2.53,0-4.78-.45-6.75-1.35s-3.5-2.18-4.6-3.85c-1.1-1.67-1.67-3.65-1.7-5.95h6.35c0,1.17.27,2.21.82,3.12.55.92,1.32,1.64,2.3,2.17.98.53,2.17.8,3.57.8,1.2,0,2.24-.19,3.12-.58.88-.38,1.57-.93,2.05-1.65.48-.72.73-1.56.73-2.53,0-1.1-.26-2.01-.78-2.72-.52-.72-1.22-1.33-2.12-1.83-.9-.5-1.93-.94-3.1-1.33-1.17-.38-2.4-.79-3.7-1.22-2.77-.93-4.85-2.12-6.25-3.58s-2.1-3.39-2.1-5.83c0-2.03.48-3.78,1.45-5.25.97-1.47,2.32-2.61,4.07-3.42,1.75-.82,3.78-1.22,6.08-1.22s4.38.42,6.12,1.25,3.13,1.99,4.15,3.47c1.02,1.48,1.54,3.26,1.58,5.33h-6.4c-.03-.87-.27-1.67-.7-2.42-.43-.75-1.06-1.37-1.88-1.85-.82-.48-1.81-.72-2.98-.72-1-.03-1.89.12-2.67.47-.78.35-1.4.85-1.85,1.5-.45.65-.67,1.46-.67,2.42s.21,1.71.62,2.33c.42.62,1.02,1.13,1.82,1.55.8.42,1.73.81,2.8,1.18,1.07.37,2.23.77,3.5,1.2,1.73.57,3.31,1.26,4.72,2.08,1.42.82,2.54,1.88,3.38,3.17.83,1.3,1.25,2.98,1.25,5.05,0,1.8-.47,3.47-1.4,5.02-.93,1.55-2.3,2.8-4.1,3.75-1.8.95-4.05,1.42-6.75,1.42Z"/><path d="M41.52,351.16l30.25-35h5.8l-30.2,35h-5.85ZM59.62,351.76c-3.4,0-6.39-.76-8.98-2.27-2.58-1.52-4.6-3.63-6.05-6.35-1.45-2.72-2.18-5.88-2.18-9.47s.73-6.71,2.18-9.42c1.45-2.72,3.47-4.84,6.05-6.38,2.58-1.53,5.58-2.3,8.98-2.3s6.44.77,9.02,2.3c2.58,1.53,4.6,3.66,6.05,6.38,1.45,2.72,2.17,5.86,2.17,9.42s-.73,6.76-2.17,9.47c-1.45,2.72-3.47,4.83-6.05,6.35-2.58,1.52-5.59,2.27-9.02,2.27ZM59.62,346.36c2.27,0,4.23-.51,5.88-1.53,1.65-1.02,2.93-2.47,3.85-4.38.92-1.9,1.38-4.17,1.38-6.8s-.46-4.9-1.38-6.8c-.92-1.9-2.2-3.36-3.85-4.38s-3.61-1.53-5.88-1.53-4.17.51-5.83,1.53c-1.65,1.02-2.94,2.47-3.88,4.38-.93,1.9-1.4,4.17-1.4,6.8s.47,4.9,1.4,6.8c.93,1.9,2.23,3.36,3.88,4.38,1.65,1.02,3.59,1.53,5.83,1.53Z"/><path d="M82.52,351.16v-35h12.55c2.77,0,5.06.47,6.88,1.42,1.82.95,3.17,2.22,4.05,3.8.88,1.58,1.33,3.38,1.33,5.38,0,1.87-.43,3.6-1.3,5.2-.87,1.6-2.22,2.88-4.05,3.85-1.83.97-4.18,1.45-7.05,1.45h-6.4v13.9h-6ZM88.52,332.81h6.15c2.23,0,3.88-.54,4.92-1.62s1.58-2.51,1.58-4.28-.52-3.12-1.55-4.17c-1.03-1.05-2.68-1.58-4.95-1.58h-6.15v11.65ZM100.77,351.16l-7.35-15.45h6.5l7.7,15.45h-6.85Z"/><path d="M113.52,351.16v-35h22.6v4.85h-16.6v10.05h15.1v4.75h-15.1v10.5h16.6v4.85h-22.6Z"/><path d="M142.42,351.16v-35h6l16.85,25.3v-25.3h6v35h-6l-16.85-25.25v25.25h-6Z"/><path d="M190.06,351.76c-2.53,0-4.78-.45-6.75-1.35s-3.5-2.18-4.6-3.85c-1.1-1.67-1.67-3.65-1.7-5.95h6.35c0,1.17.27,2.21.82,3.12.55.92,1.32,1.64,2.3,2.17.98.53,2.17.8,3.57.8,1.2,0,2.24-.19,3.12-.58.88-.38,1.57-.93,2.05-1.65.48-.72.73-1.56.73-2.53,0-1.1-.26-2.01-.78-2.72-.52-.72-1.22-1.33-2.12-1.83-.9-.5-1.93-.94-3.1-1.33-1.17-.38-2.4-.79-3.7-1.22-2.77-.93-4.85-2.12-6.25-3.58s-2.1-3.39-2.1-5.83c0-2.03.48-3.78,1.45-5.25.97-1.47,2.32-2.61,4.07-3.42,1.75-.82,3.78-1.22,6.08-1.22s4.38.42,6.12,1.25c1.75.83,3.13,1.99,4.15,3.47,1.02,1.48,1.54,3.26,1.58,5.33h-6.4c-.03-.87-.27-1.67-.7-2.42-.43-.75-1.06-1.37-1.88-1.85-.82-.48-1.81-.72-2.98-.72-1-.03-1.89.12-2.67.47-.78.35-1.4.85-1.85,1.5-.45.65-.67,1.46-.67,2.42s.21,1.71.62,2.33c.42.62,1.02,1.13,1.82,1.55.8.42,1.73.81,2.8,1.18,1.07.37,2.23.77,3.5,1.2,1.73.57,3.31,1.26,4.72,2.08,1.42.82,2.54,1.88,3.38,3.17.83,1.3,1.25,2.98,1.25,5.05,0,1.8-.47,3.47-1.4,5.02-.93,1.55-2.3,2.8-4.1,3.75-1.8.95-4.05,1.42-6.75,1.42Z"/><path d="M208.16,351.16v-35h22.6v4.85h-16.6v10.05h15.1v4.75h-15.1v10.5h16.6v4.85h-22.6Z"/><path d="M237.06,351.16v-35h6l16.85,25.3v-25.3h6v35h-6l-16.85-25.25v25.25h-6Z"/><polyline class="cls-1" points="1 3 1 13 186 13 186 3 1 3"/><polyline class="cls-1" points="195 374 195 384 380 384 380 374 195 374"/><polyline class="cls-1" points="386 199 376 199 376 384 386 384 386 199"/></svg>